HIERARCHY
ROOT Hips
{
  OFFSET 179.979 97.3047 303.174
  CHANNELS 6 Xposition Yposition Zposition Zrotation Xrotation Yrotation
  JOINT Spine
  {
    OFFSET 0.000859786 9.92346 -1.22733
    CHANNELS 3 Zrotation Xrotation Yrotation
    JOINT Spine1
    {
      OFFSET 0 11.732 0
      CHANNELS 3 Zrotation Xrotation Yrotation
      JOINT Spine2
      {
        OFFSET 0 13.4588 0
        CHANNELS 3 Zrotation Xrotation Yrotation
        JOINT Neck
        {
          OFFSET 2.54812e-05 15.0278 0.877907
          CHANNELS 3 Zrotation Xrotation Yrotation
          JOINT Head
          {
            OFFSET 0 10.3218 3.14243
            CHANNELS 3 Zrotation Xrotation Yrotation
            End Site
            {
              OFFSET 0 0 0
            }
          }
        }
        JOINT LeftShoulder
        {
          OFFSET 6.10582 9.10629 0.757062
          CHANNELS 3 Zrotation Xrotation Yrotation
          JOINT LeftArm
          {
            OFFSET 0 12.9223 0
            CHANNELS 3 Zrotation Xrotation Yrotation
            JOINT LeftForeArm
            {
              OFFSET 0 27.4047 0
              CHANNELS 3 Zrotation Xrotation Yrotation
              JOINT LeftHand
              {
                OFFSET -1.28204e-05 27.6145 0
                CHANNELS 3 Zrotation Xrotation Yrotation
                End Site
                {
                  OFFSET 0 0 0
                }
              }
            }
          }
        }
        JOINT RightShoulder
        {
          OFFSET -6.1057 9.10638 0.757076
          CHANNELS 3 Zrotation Xrotation Yrotation
          JOINT RightArm
          {
            OFFSET 0 12.9223 0
            CHANNELS 3 Zrotation Xrotation Yrotation
            JOINT RightForeArm
            {
              OFFSET 0 27.4047 0
              CHANNELS 3 Zrotation Xrotation Yrotation
              JOINT RightHand
              {
                OFFSET 1.28428e-05 27.6145 1.44975e-05
                CHANNELS 3 Zrotation Xrotation Yrotation
                End Site
                {
                  OFFSET 0 0 0
                }
              }
            }
          }
        }
      }
    }
  }
  JOINT LeftUpLeg
  {
    OFFSET 9.12387 -6.65719 -0.0554031
    CHANNELS 3 Zrotation Xrotation Yrotation
    JOINT LeftLeg
    {
      OFFSET 0 40.5994 0
      CHANNELS 3 Zrotation Xrotation Yrotation
      JOINT LeftFoot
      {
        OFFSET 0 42.099 0
        CHANNELS 3 Zrotation Xrotation Yrotation
        JOINT LeftToeBase
        {
          OFFSET 0 15.7216 0
          CHANNELS 3 Zrotation Xrotation Yrotation
          End Site
          {
            OFFSET 0 0 0
          }
        }
      }
    }
  }
  JOINT RightUpLeg
  {
    OFFSET -9.12503 -6.6556 -0.0553527
    CHANNELS 3 Zrotation Xrotation Yrotation
    JOINT RightLeg
    {
      OFFSET 0 40.5994 0
      CHANNELS 3 Zrotation Xrotation Yrotation
      JOINT RightFoot
      {
        OFFSET 0 42.099 0
        CHANNELS 3 Zrotation Xrotation Yrotation
        JOINT RightToeBase
        {
          OFFSET 0 15.7216 0
          CHANNELS 3 Zrotation Xrotation Yrotation
          End Site
          {
            OFFSET 0 0 0
          }
        }
      }
    }
  }
}
MOTION
Frames:	6
Frame Time:	0.0333333
106.689 97.0277 368.045 2.0231 -6.38816 7.24975 1.33542 -1.60971 0.774884 2.63814 10.7388 1.1058 2.50581 17.3321 1.13944 -9.8698 8.85764 -16.7678 12.1655 -14.4215 -21.5398 -106.335 -17.4197 89.5892 18.0738 56.6551 29.5362 18.0443 -12.2912 -0.601065 -14.7304 3.43116 44.2966 107.558 -20.3379 -88.8403 -30.8653 51.9345 -7.93177 -40.1141 -21.0759 1.1839 2.30708 -9.34812 -15.4404 -168.347 23.1915 -11.8466 -6.56848 -50.8042 -3.00348 -8.83248 60.7224 1.63492 -0.96527 26.367 -3.60229 174.832 2.57022 0.880072 7.73007 -22.3541 13.734 -29.6761 72.8799 28.745 0.963533 26.3682 3.55537 
107.433 97.2102 368.516 2.25561 -6.08481 5.96443 1.32055 -1.70944 0.784945 2.60686 10.5396 1.13326 2.47136 17.1328 1.16717 -9.4725 9.46119 -16.2019 11.0923 -14.1924 -20.827 -106.347 -17.5439 89.5583 14.3011 55.5214 34.8831 17.9783 -12.3919 -0.604987 -16.3616 8.76629 53.0383 107.591 -20.4571 -88.8073 -31.1002 51.594 -8.5253 -43.0363 -20.9515 1.19273 1.6355 -10.2432 -13.7648 -169.546 21.2204 -9.6844 -5.37929 -45.264 -5.09175 -2.23462 61.7297 -2.90801 -0.96527 26.367 -3.60229 174.068 2.17099 0.15898 7.54621 -21.2912 13.1772 -27.8287 72.5837 27.1721 0.963533 26.3682 3.55537 
108.211 97.284 368.956 2.19591 -6.14228 4.63706 1.37722 -1.70808 0.757327 2.7246 10.5417 1.05846 2.59811 17.135 1.09028 -9.28726 9.86051 -15.37 9.95773 -13.36 -19.907 -106.101 -17.5451 89.5648 12.7535 54.6856 37.9689 16.8511 -12.1396 -0.590439 -16.9879 14.1518 53.864 107.513 -20.3459 -88.8409 -31.6429 50.9164 -9.52826 -44.6933 -20.6687 1.18751 1.64773 -12.3807 -11.8819 -170.601 18.3696 -5.36817 -5.83366 -39.0831 -7.66708 3.33972 63.1717 -7.09265 -0.96527 26.367 -3.60229 173.57 1.56111 -1.09991 7.65298 -20.3475 12.9979 -26.8275 72.3527 26.4588 0.963533 26.3682 3.55537 
108.997 97.2508 369.313 1.84194 -6.3918 3.29257 1.45057 -1.65263 0.675817 2.88156 10.6504 0.868171 2.7779 17.2441 0.894781 -8.25884 10.4599 -14.1128 8.22911 -11.9677 -18.2417 -105.598 -17.3496 89.6255 12.3347 54.0813 37.7924 16.0609 -11.4353 -0.55876 -19.1473 18.346 51.1808 107.468 -20.0454 -88.9214 -33.1468 50.1264 -10.6184 -43.7935 -20.5876 1.18019 2.3888 -14.9399 -8.8416 -171.161 15.0258 -0.953903 -6.35054 -33.0581 -8.59545 5.48621 63.706 -9.00461 -0.96527 26.367 -3.60229 173.353 1.10419 -2.68876 7.9329 -19.878 13.0956 -26.5401 72.3148 26.5106 0.963533 26.3682 3.55537 
109.844 97.1151 369.613 1.20864 -6.70171 2.11418 1.54416 -1.59118 0.524576 3.08663 10.7691 0.530258 3.02373 17.3633 0.547229 -6.57802 12.023 -12.4103 5.62824 -10.7329 -15.8129 -105.085 -16.7243 89.7847 12.7865 53.4752 37.1011 15.9933 -11.1858 -0.548591 -20.3578 19.3193 48.6009 107.481 -19.7559 -88.9961 -34.9097 49.6237 -10.719 -41.2593 -20.5831 1.16876 3.81542 -15.847 -7.65311 -171.368 11.8083 2.07719 -6.21435 -28.3529 -7.59487 3.58192 63.476 -8.18991 -0.96527 26.367 -3.60229 173.474 0.924604 -4.79737 8.30236 -19.9474 13.687 -27.0794 72.3574 27.6435 0.963533 26.3682 3.55537 
110.704 97.0066 369.79 0.652034 -6.71299 1.08208 1.56498 -1.54367 0.302121 3.15099 10.8578 0.0739145 3.14313 17.4524 0.0775638 -4.96284 13.5362 -10.2523 3.52488 -7.96613 -12.9072 -104.561 -16.1632 89.9228 14.2889 52.9459 35.7771 17.1528 -11.6264 -0.571047 -20.8129 17.499 49.1321 107.657 -19.4413 -89.0697 -36.3982 49.451 -9.36185 -38.5145 -20.5087 1.15048 4.66168 -14.5524 -8.74554 -171.732 9.77493 3.35537 -6.20354 -26.3863 -7.21663 4.55414 65.344 -8.40616 -0.96527 26.367 -3.60229 173.285 1.33603 -5.27873 8.60117 -20.5738 13.4477 -26.1289 72.635 27.0093 0.963533 26.3682 3.55537 
